<?xml version="1.0" encoding="utf-8"?>
<!-- Generator: Adobe Illustrator 20.0.0, SVG Export Plug-In . SVG Version: 6.00 Build 0)  -->
<svg version="1.1" id="圖層_1" xmlns="http://www.w3.org/2000/svg" xmlns:xlink="http://www.w3.org/1999/xlink" x="0px" y="0px"
	 viewBox="0 0 384 512" style="enable-background:new 0 0 384 512;" xml:space="preserve">
<style type="text/css">
	.st0{fill:#FFFFFF;}
	.st1{fill:#F29D5C;}
</style>
<rect x="57" y="70.4" class="st0" width="267" height="239.6"/>
<title>orange_marker</title>
<path class="st1" d="M192,0C86.4,0,0,86.4,0,192c0,76.8,25.6,99.2,172.8,310.4c8,10.6,23,12.8,33.6,4.8c1.8-1.4,3.4-3,4.8-4.8
	C358.4,291.2,384,268.8,384,192C384,86.4,297.6,0,192,0z M304,200c0,8.8-7.2,16-16,16h-72v72c0,8.8-7.2,16-16,16h-16
	c-8.8,0-16-7.2-16-16v-72H96c-8.8,0-16-7.2-16-16v-16c0-8.8,7.2-16,16-16h72V96c0-8.8,7.2-16,16-16h16c8.8,0,16,7.2,16,16v72h72
	c8.8,0,16,7.2,16,16V200z"/>
</svg>
